<svg width="40" height="40" viewBox="0 0 40 40" fill="none" xmlns="http://www.w3.org/2000/svg">
<circle cx="20" cy="20" r="15" fill="#9969D6"/>
<path fill-rule="evenodd" clip-rule="evenodd" d="M20 33C27.1797 33 33 27.1797 33 20C33 12.8203 27.1797 7 20 7C12.8203 7 7 12.8203 7 20C7 27.1797 12.8203 33 20 33ZM17 20C17 21.6569 15.6569 23 14 23C12.3431 23 11 21.6569 11 20C11 18.3431 12.3431 17 14 17C15.6569 17 17 18.3431 17 20ZM26 23C27.6569 23 29 21.6569 29 20C29 18.3431 27.6569 17 26 17C24.3431 17 23 18.3431 23 20C23 21.6569 24.3431 23 26 23Z" fill="#DCC2FF"/>
</svg>
