<svg width="24" height="24" viewBox="0 0 24 24" fill="none" xmlns="http://www.w3.org/2000/svg">
<path fill-rule="evenodd" clip-rule="evenodd" d="M8 1C7.44772 1 7 1.44772 7 2H3C2.44772 2 2 2.44772 2 3V21C2 21.5523 2.44772 22 3 22H21C21.5523 22 22 21.5523 22 21V3C22 2.44772 21.5523 2 21 2H17C17 1.44772 16.5523 1 16 1H8Z" fill="white"/>
<path fill-rule="evenodd" clip-rule="evenodd" d="M16.468 10.431C17.848 10.431 18.966 11.52 18.966 12.862C18.966 14.205 17.847 15.293 16.468 15.293L13.862 15.291V14.156L10.738 11.111L7.614 14.156V15.286H7.116C5.942 15.255 5 14.32 5 13.17C5 12.104 5.81 11.222 6.864 11.076C7.1 9.971 8.104 9.142 9.309 9.142C10.177 9.142 10.942 9.574 11.389 10.228C11.495 8.98 12.569 7.999 13.878 7.999C15.257 7.999 16.375 9.088 16.375 10.43V10.433L16.468 10.43V10.431ZM8.885 14.213H9.98V16.276H8.885V14.213Z" fill="#0B0B1C"/>
</svg>
