<svg width="40" height="40" viewBox="0 0 40 40" fill="none" xmlns="http://www.w3.org/2000/svg">
<path fill-rule="evenodd" clip-rule="evenodd" d="M20 1C17.2386 1 15 3.23858 15 6V20.3378C12.011 22.0669 10 25.2986 10 29C10 34.5228 14.4772 39 20 39C25.5228 39 30 34.5228 30 29C30 25.2986 27.989 22.0669 25 20.3378V6C25 3.23858 22.7614 1 20 1Z" fill="#DADDE3"/>
<path fill-rule="evenodd" clip-rule="evenodd" d="M25 20.3378C27.989 22.0669 30 25.2986 30 29C30 34.5228 25.5228 39 20 39C14.4772 39 10 34.5228 10 29C10 25.2986 12.011 22.0669 15 20.3378V6C15 3.23858 17.2386 1 20 1C22.7614 1 25 3.23858 25 6V20.3378ZM16.0015 22.069L17 21.4914V6C17 4.34315 18.3431 3 20 3C21.6569 3 23 4.34315 23 6V7H20C19.4477 7 19 7.44772 19 8C19 8.55228 19.4477 9 20 9H23V11H20C19.4477 11 19 11.4477 19 12C19 12.5523 19.4477 13 20 13H23V15H20C19.4477 15 19 15.4477 19 16C19 16.5523 19.4477 17 20 17H23V21.4914L23.9985 22.069C26.395 23.4553 28 26.0414 28 29C28 33.4183 24.4183 37 20 37C15.5817 37 12 33.4183 12 29C12 26.0414 13.605 23.4553 16.0015 22.069Z" fill="#0B0B1C"/>
</svg>
