<svg width="40" height="40" viewBox="0 0 40 40" fill="none" xmlns="http://www.w3.org/2000/svg">
<path d="M21 10H7C4.79086 10 3 11.7909 3 14V26C3 28.2091 4.79086 30 7 30H21C23.2091 30 25 28.2091 25 26V14C25 11.7909 23.2091 10 21 10Z" fill="white"/>
<path fill-rule="evenodd" clip-rule="evenodd" d="M29.3501 15.3884L35.3501 10.2581C35.7699 9.89919 36.4011 9.94851 36.76 10.3683C36.9149 10.5494 37 10.7799 37 11.0181V28.982C37 29.5343 36.5523 29.982 36 29.982C35.762 29.982 35.5317 29.8971 35.3507 29.7425L29.3507 24.6202C29.1282 24.4302 29 24.1522 29 23.8596V16.1484C29 15.8561 29.1279 15.5784 29.3501 15.3884Z" fill="white"/>
<path fill-rule="evenodd" clip-rule="evenodd" d="M6 11C4.89543 11 4 11.8954 4 13V27C4 28.1046 4.89543 29 6 29H22C23.1046 29 24 28.1046 24 27V13C24 11.8954 23.1046 11 22 11H6ZM6 9H22C24.2091 9 26 10.7909 26 13V27C26 29.2091 24.2091 31 22 31H6C3.79086 31 2 29.2091 2 27V13C2 10.7909 3.79086 9 6 9Z" fill="#DADDE3"/>
<path fill-rule="evenodd" clip-rule="evenodd" d="M30 16.609V23.3984C30 23.6911 30.1282 23.969 30.3507 24.159L35.5052 28.5595C35.6312 28.6671 35.8206 28.6522 35.9282 28.5262C35.9745 28.4718 36 28.4028 36 28.3314V11.6693C36 11.5036 35.8657 11.3693 35.7 11.3693C35.6285 11.3693 35.5594 11.3949 35.505 11.4413L30.3501 15.849C30.1279 16.039 30 16.3167 30 16.609ZM34.7003 9.49802C35.5398 8.78019 36.8023 8.87884 37.5201 9.71836C37.8298 10.0806 38 10.5415 38 11.0181V28.9819C38 30.0865 37.1046 30.9819 36 30.9819C35.5239 30.9819 35.0635 30.8121 34.7014 30.503L28.7014 25.3807C28.2563 25.0007 28 24.4448 28 23.8596V16.1484C28 15.5637 28.2559 15.0083 28.7003 14.6283L34.7003 9.49802Z" fill="#DADDE3"/>
</svg>
