<svg width="40" height="40" viewBox="0 0 40 40" fill="none" xmlns="http://www.w3.org/2000/svg">
<path fill-rule="evenodd" clip-rule="evenodd" d="M37 15.5499L20 3L3 14.5284V37H7V16.5713H33V37H37V15.5499ZM32 36V18H8V36H32Z" fill="#FDB28E"/>
<path d="M36 16.3494V35.9865H32V38H36C37.1046 38 38 37.0985 38 35.9865V16.3494C38 15.7222 37.7097 15.1309 37.2149 14.75L21.1912 2.41405C20.4966 1.87928 19.5374 1.86084 18.8229 2.36853L2.84663 13.7219C2.31573 14.0991 2 14.7126 2 15.3668V35.9865C2 37.0985 2.89543 38 4 38H8V35.9865H4V15.3668L19.9763 4.01347L36 16.3494Z" fill="#DA7849"/>
<rect x="8" y="16" width="24" height="2" fill="#DA7849"/>
<rect x="8" y="21" width="24" height="2" fill="#DA7849"/>
<rect x="8" y="26" width="24" height="2" fill="#DA7849"/>
<rect x="8" y="31" width="24" height="2" fill="#DA7849"/>
<rect x="8" y="36" width="24" height="2" fill="#DA7849"/>
<path d="M6 18C6 16.8954 6.89543 16 8 16V38H6V18Z" fill="#DA7849"/>
<path d="M32 16C33.1046 16 34 16.8954 34 18V38H32V16Z" fill="#DA7849"/>
<rect x="8" y="16" width="24" height="2" fill="#DA7849"/>
</svg>
