<svg width="501" height="260" viewBox="0 0 501 260" fill="none" xmlns="http://www.w3.org/2000/svg">
<g id="icons/device">
<g id="type=Default, color=Default">
<circle id="Outline" cx="40" cy="40" r="15" fill="#3A3A3A"/>
<circle id="Fill" cx="40" cy="40" r="13" fill="white"/>
</g>
<g id="type=Default, color=zwave">
<circle id="Outline_2" cx="40" cy="100" r="15" fill="#9969D6"/>
<circle id="Fill_2" cx="40" cy="100" r="13" fill="#DCC2FF"/>
</g>
<g id="type=Default, color=enocean">
<circle id="Outline_3" cx="40" cy="160" r="15" fill="#53B19D"/>
<circle id="Fill_3" cx="40" cy="160" r="13" fill="#B5EFE2"/>
</g>
<g id="type=Default, color=zigbee">
<circle id="Outline_4" cx="40" cy="220" r="15" fill="#DA7849"/>
<circle id="Fill_4" cx="40" cy="220" r="13" fill="#FDB28E"/>
</g>
<g id="type=heating, color=Default">
<g id="Outline_5">
<path d="M83 31C83 30.4477 83.4477 30 84 30H116C116.552 30 117 30.4477 117 31C117 31.5523 116.552 32 116 32H84C83.4477 32 83 31.5523 83 31Z" fill="#3A3A3A"/>
<path d="M83 50C83 49.4477 83.4477 49 84 49H116C116.552 49 117 49.4477 117 50C117 50.5523 116.552 51 116 51H84C83.4477 51 83 50.5523 83 50Z" fill="#3A3A3A"/>
<path d="M101 28C101 26.3431 102.343 25 104 25C105.657 25 107 26.3431 107 28V52C107 53.6569 105.657 55 104 55C102.343 55 101 53.6569 101 52V28Z" fill="#3A3A3A"/>
<path d="M93 28C93 26.3431 94.3431 25 96 25C97.6569 25 99 26.3431 99 28V52C99 53.6569 97.6569 55 96 55C94.3431 55 93 53.6569 93 52V28Z" fill="#3A3A3A"/>
<path d="M85 28C85 26.3431 86.3431 25 88 25C89.6569 25 91 26.3431 91 28V52C91 53.6569 89.6569 55 88 55C86.3431 55 85 53.6569 85 52V28Z" fill="#3A3A3A"/>
<path d="M109 28C109 26.3431 110.343 25 112 25C113.657 25 115 26.3431 115 28V52C115 53.6569 113.657 55 112 55C110.343 55 109 53.6569 109 52V28Z" fill="#3A3A3A"/>
</g>
<g id="Fill_5">
<path d="M87 28C87 27.4477 87.4477 27 88 27C88.5523 27 89 27.4477 89 28V52C89 52.5523 88.5523 53 88 53C87.4477 53 87 52.5523 87 52V28Z" fill="white"/>
<path d="M95 28C95 27.4477 95.4477 27 96 27C96.5523 27 97 27.4477 97 28V52C97 52.5523 96.5523 53 96 53C95.4477 53 95 52.5523 95 52V28Z" fill="white"/>
<path d="M103 28C103 27.4477 103.448 27 104 27C104.552 27 105 27.4477 105 28V52C105 52.5523 104.552 53 104 53C103.448 53 103 52.5523 103 52V28Z" fill="white"/>
<path d="M111 28C111 27.4477 111.448 27 112 27C112.552 27 113 27.4477 113 28V52C113 52.5523 112.552 53 112 53C111.448 53 111 52.5523 111 52V28Z" fill="white"/>
</g>
</g>
<g id="type=heating, color=zwave">
<g id="Outline_6">
<path d="M83 91C83 90.4477 83.4477 90 84 90H116C116.552 90 117 90.4477 117 91C117 91.5523 116.552 92 116 92H84C83.4477 92 83 91.5523 83 91Z" fill="#9969D6"/>
<path d="M83 110C83 109.448 83.4477 109 84 109H116C116.552 109 117 109.448 117 110C117 110.552 116.552 111 116 111H84C83.4477 111 83 110.552 83 110Z" fill="#9969D6"/>
<path d="M101 88C101 86.3431 102.343 85 104 85C105.657 85 107 86.3431 107 88V112C107 113.657 105.657 115 104 115C102.343 115 101 113.657 101 112V88Z" fill="#9969D6"/>
<path d="M93 88C93 86.3431 94.3431 85 96 85C97.6569 85 99 86.3431 99 88V112C99 113.657 97.6569 115 96 115C94.3431 115 93 113.657 93 112V88Z" fill="#9969D6"/>
<path d="M85 88C85 86.3431 86.3431 85 88 85C89.6569 85 91 86.3431 91 88V112C91 113.657 89.6569 115 88 115C86.3431 115 85 113.657 85 112V88Z" fill="#9969D6"/>
<path d="M109 88C109 86.3431 110.343 85 112 85C113.657 85 115 86.3431 115 88V112C115 113.657 113.657 115 112 115C110.343 115 109 113.657 109 112V88Z" fill="#9969D6"/>
</g>
<g id="Fill_6">
<path d="M87 88C87 87.4477 87.4477 87 88 87C88.5523 87 89 87.4477 89 88V112C89 112.552 88.5523 113 88 113C87.4477 113 87 112.552 87 112V88Z" fill="#DCC2FF"/>
<path d="M95 88C95 87.4477 95.4477 87 96 87C96.5523 87 97 87.4477 97 88V112C97 112.552 96.5523 113 96 113C95.4477 113 95 112.552 95 112V88Z" fill="#DCC2FF"/>
<path d="M103 88C103 87.4477 103.448 87 104 87C104.552 87 105 87.4477 105 88V112C105 112.552 104.552 113 104 113C103.448 113 103 112.552 103 112V88Z" fill="#DCC2FF"/>
<path d="M111 88C111 87.4477 111.448 87 112 87C112.552 87 113 87.4477 113 88V112C113 112.552 112.552 113 112 113C111.448 113 111 112.552 111 112V88Z" fill="#DCC2FF"/>
</g>
</g>
<g id="type=heating, color=enocean">
<g id="Outline_7">
<path d="M83 151C83 150.448 83.4477 150 84 150H116C116.552 150 117 150.448 117 151C117 151.552 116.552 152 116 152H84C83.4477 152 83 151.552 83 151Z" fill="#53B19D"/>
<path d="M83 170C83 169.448 83.4477 169 84 169H116C116.552 169 117 169.448 117 170C117 170.552 116.552 171 116 171H84C83.4477 171 83 170.552 83 170Z" fill="#53B19D"/>
<path d="M101 148C101 146.343 102.343 145 104 145C105.657 145 107 146.343 107 148V172C107 173.657 105.657 175 104 175C102.343 175 101 173.657 101 172V148Z" fill="#53B19D"/>
<path d="M93 148C93 146.343 94.3431 145 96 145C97.6569 145 99 146.343 99 148V172C99 173.657 97.6569 175 96 175C94.3431 175 93 173.657 93 172V148Z" fill="#53B19D"/>
<path d="M85 148C85 146.343 86.3431 145 88 145C89.6569 145 91 146.343 91 148V172C91 173.657 89.6569 175 88 175C86.3431 175 85 173.657 85 172V148Z" fill="#53B19D"/>
<path d="M109 148C109 146.343 110.343 145 112 145C113.657 145 115 146.343 115 148V172C115 173.657 113.657 175 112 175C110.343 175 109 173.657 109 172V148Z" fill="#53B19D"/>
</g>
<g id="Fill_7">
<path d="M87 148C87 147.448 87.4477 147 88 147C88.5523 147 89 147.448 89 148V172C89 172.552 88.5523 173 88 173C87.4477 173 87 172.552 87 172V148Z" fill="#B5EFE2"/>
<path d="M95 148C95 147.448 95.4477 147 96 147C96.5523 147 97 147.448 97 148V172C97 172.552 96.5523 173 96 173C95.4477 173 95 172.552 95 172V148Z" fill="#B5EFE2"/>
<path d="M103 148C103 147.448 103.448 147 104 147C104.552 147 105 147.448 105 148V172C105 172.552 104.552 173 104 173C103.448 173 103 172.552 103 172V148Z" fill="#B5EFE2"/>
<path d="M111 148C111 147.448 111.448 147 112 147C112.552 147 113 147.448 113 148V172C113 172.552 112.552 173 112 173C111.448 173 111 172.552 111 172V148Z" fill="#B5EFE2"/>
</g>
</g>
<g id="type=heating, color=zigbee">
<g id="Outline_8">
<path d="M83 211C83 210.448 83.4477 210 84 210H116C116.552 210 117 210.448 117 211C117 211.552 116.552 212 116 212H84C83.4477 212 83 211.552 83 211Z" fill="#DA7849"/>
<path d="M83 230C83 229.448 83.4477 229 84 229H116C116.552 229 117 229.448 117 230C117 230.552 116.552 231 116 231H84C83.4477 231 83 230.552 83 230Z" fill="#DA7849"/>
<path d="M101 208C101 206.343 102.343 205 104 205C105.657 205 107 206.343 107 208V232C107 233.657 105.657 235 104 235C102.343 235 101 233.657 101 232V208Z" fill="#DA7849"/>
<path d="M93 208C93 206.343 94.3431 205 96 205C97.6569 205 99 206.343 99 208V232C99 233.657 97.6569 235 96 235C94.3431 235 93 233.657 93 232V208Z" fill="#DA7849"/>
<path d="M85 208C85 206.343 86.3431 205 88 205C89.6569 205 91 206.343 91 208V232C91 233.657 89.6569 235 88 235C86.3431 235 85 233.657 85 232V208Z" fill="#DA7849"/>
<path d="M109 208C109 206.343 110.343 205 112 205C113.657 205 115 206.343 115 208V232C115 233.657 113.657 235 112 235C110.343 235 109 233.657 109 232V208Z" fill="#DA7849"/>
</g>
<g id="Fill_8">
<path d="M87 208C87 207.448 87.4477 207 88 207C88.5523 207 89 207.448 89 208V232C89 232.552 88.5523 233 88 233C87.4477 233 87 232.552 87 232V208Z" fill="#FDB28E"/>
<path d="M95 208C95 207.448 95.4477 207 96 207C96.5523 207 97 207.448 97 208V232C97 232.552 96.5523 233 96 233C95.4477 233 95 232.552 95 232V208Z" fill="#FDB28E"/>
<path d="M103 208C103 207.448 103.448 207 104 207C104.552 207 105 207.448 105 208V232C105 232.552 104.552 233 104 233C103.448 233 103 232.552 103 232V208Z" fill="#FDB28E"/>
<path d="M111 208C111 207.448 111.448 207 112 207C112.552 207 113 207.448 113 208V232C113 232.552 112.552 233 112 233C111.448 233 111 232.552 111 232V208Z" fill="#FDB28E"/>
</g>
</g>
<g id="type=light, color=Default">
<g id="Outline_9">
<path d="M167 43.7479C170.028 41.5695 172 38.0151 172 34C172 27.3726 166.627 22 160 22C153.373 22 148 27.3726 148 34C148 38.0151 149.972 41.5695 153 43.7479V47C153 49.2091 154.791 51 157 51H163C165.209 51 167 49.2091 167 47V43.7479Z" fill="#3A3A3A"/>
<path d="M155 54C155 53.4477 155.448 53 156 53H164C164.552 53 165 53.4477 165 54C165 54.5523 164.552 55 164 55H156C155.448 55 155 54.5523 155 54Z" fill="#3A3A3A"/>
<path d="M158 56C157.448 56 157 56.4477 157 57C157 57.5523 157.448 58 158 58H162C162.552 58 163 57.5523 163 57C163 56.4477 162.552 56 162 56H158Z" fill="#3A3A3A"/>
</g>
<path id="Fill_9" d="M165 42.6622C167.989 40.9331 170 37.7014 170 34C170 28.4772 165.523 24 160 24C154.477 24 150 28.4772 150 34C150 37.7014 152.011 40.9331 155 42.6622V47C155 48.1046 155.895 49 157 49H163C164.105 49 165 48.1046 165 47V42.6622Z" fill="white"/>
</g>
<g id="type=light, color=zwave">
<g id="Outline_10">
<path d="M167 103.748C170.028 101.57 172 98.0151 172 94C172 87.3726 166.627 82 160 82C153.373 82 148 87.3726 148 94C148 98.0151 149.972 101.57 153 103.748V107C153 109.209 154.791 111 157 111H163C165.209 111 167 109.209 167 107V103.748Z" fill="#9969D6"/>
<path d="M155 114C155 113.448 155.448 113 156 113H164C164.552 113 165 113.448 165 114C165 114.552 164.552 115 164 115H156C155.448 115 155 114.552 155 114Z" fill="#9969D6"/>
<path d="M158 116C157.448 116 157 116.448 157 117C157 117.552 157.448 118 158 118H162C162.552 118 163 117.552 163 117C163 116.448 162.552 116 162 116H158Z" fill="#9969D6"/>
</g>
<path id="Fill_10" d="M165 102.662C167.989 100.933 170 97.7014 170 94C170 88.4772 165.523 84 160 84C154.477 84 150 88.4772 150 94C150 97.7014 152.011 100.933 155 102.662V107C155 108.105 155.895 109 157 109H163C164.105 109 165 108.105 165 107V102.662Z" fill="#DCC2FF"/>
</g>
<g id="type=light, color=enocean">
<g id="Outline_11">
<path d="M167 163.748C170.028 161.57 172 158.015 172 154C172 147.373 166.627 142 160 142C153.373 142 148 147.373 148 154C148 158.015 149.972 161.57 153 163.748V167C153 169.209 154.791 171 157 171H163C165.209 171 167 169.209 167 167V163.748Z" fill="#53B19D"/>
<path d="M155 174C155 173.448 155.448 173 156 173H164C164.552 173 165 173.448 165 174C165 174.552 164.552 175 164 175H156C155.448 175 155 174.552 155 174Z" fill="#53B19D"/>
<path d="M158 176C157.448 176 157 176.448 157 177C157 177.552 157.448 178 158 178H162C162.552 178 163 177.552 163 177C163 176.448 162.552 176 162 176H158Z" fill="#53B19D"/>
</g>
<path id="Fill_11" d="M165 162.662C167.989 160.933 170 157.701 170 154C170 148.477 165.523 144 160 144C154.477 144 150 148.477 150 154C150 157.701 152.011 160.933 155 162.662V167C155 168.105 155.895 169 157 169H163C164.105 169 165 168.105 165 167V162.662Z" fill="#B5EFE2"/>
</g>
<g id="type=light, color=zigbee">
<g id="Outline_12">
<path d="M167 223.748C170.028 221.57 172 218.015 172 214C172 207.373 166.627 202 160 202C153.373 202 148 207.373 148 214C148 218.015 149.972 221.57 153 223.748V227C153 229.209 154.791 231 157 231H163C165.209 231 167 229.209 167 227V223.748Z" fill="#DA7849"/>
<path d="M155 234C155 233.448 155.448 233 156 233H164C164.552 233 165 233.448 165 234C165 234.552 164.552 235 164 235H156C155.448 235 155 234.552 155 234Z" fill="#DA7849"/>
<path d="M158 236C157.448 236 157 236.448 157 237C157 237.552 157.448 238 158 238H162C162.552 238 163 237.552 163 237C163 236.448 162.552 236 162 236H158Z" fill="#DA7849"/>
</g>
<path id="Fill_12" d="M165 222.662C167.989 220.933 170 217.701 170 214C170 208.477 165.523 204 160 204C154.477 204 150 208.477 150 214C150 217.701 152.011 220.933 155 222.662V227C155 228.105 155.895 229 157 229H163C164.105 229 165 228.105 165 227V222.662Z" fill="#FDB28E"/>
</g>
<g id="type=electricity, color=Default">
<circle id="Outline_13" cx="220" cy="40" r="15" fill="#3A3A3A"/>
<path id="Fill_13" fill-rule="evenodd" clip-rule="evenodd" d="M220 53C227.18 53 233 47.1797 233 40C233 32.8203 227.18 27 220 27C212.82 27 207 32.8203 207 40C207 47.1797 212.82 53 220 53ZM217 40C217 41.6569 215.657 43 214 43C212.343 43 211 41.6569 211 40C211 38.3431 212.343 37 214 37C215.657 37 217 38.3431 217 40ZM226 43C227.657 43 229 41.6569 229 40C229 38.3431 227.657 37 226 37C224.343 37 223 38.3431 223 40C223 41.6569 224.343 43 226 43Z" fill="white"/>
</g>
<g id="type=electricity, color=zwave">
<circle id="Outline_14" cx="220" cy="100" r="15" fill="#9969D6"/>
<path id="Fill_14" fill-rule="evenodd" clip-rule="evenodd" d="M220 113C227.18 113 233 107.18 233 100C233 92.8203 227.18 87 220 87C212.82 87 207 92.8203 207 100C207 107.18 212.82 113 220 113ZM217 100C217 101.657 215.657 103 214 103C212.343 103 211 101.657 211 100C211 98.3431 212.343 97 214 97C215.657 97 217 98.3431 217 100ZM226 103C227.657 103 229 101.657 229 100C229 98.3431 227.657 97 226 97C224.343 97 223 98.3431 223 100C223 101.657 224.343 103 226 103Z" fill="#DCC2FF"/>
</g>
<g id="type=electricity, color=enocean">
<circle id="Outline_15" cx="220" cy="160" r="15" fill="#53B19D"/>
<path id="Fill_15" fill-rule="evenodd" clip-rule="evenodd" d="M220 173C227.18 173 233 167.18 233 160C233 152.82 227.18 147 220 147C212.82 147 207 152.82 207 160C207 167.18 212.82 173 220 173ZM217 160C217 161.657 215.657 163 214 163C212.343 163 211 161.657 211 160C211 158.343 212.343 157 214 157C215.657 157 217 158.343 217 160ZM226 163C227.657 163 229 161.657 229 160C229 158.343 227.657 157 226 157C224.343 157 223 158.343 223 160C223 161.657 224.343 163 226 163Z" fill="#B5EFE2"/>
</g>
<g id="type=electricity, color=zigbee">
<circle id="Outline_16" cx="220" cy="220" r="15" fill="#DA7849"/>
<path id="Fill_16" fill-rule="evenodd" clip-rule="evenodd" d="M220 233C227.18 233 233 227.18 233 220C233 212.82 227.18 207 220 207C212.82 207 207 212.82 207 220C207 227.18 212.82 233 220 233ZM217 220C217 221.657 215.657 223 214 223C212.343 223 211 221.657 211 220C211 218.343 212.343 217 214 217C215.657 217 217 218.343 217 220ZM226 223C227.657 223 229 221.657 229 220C229 218.343 227.657 217 226 217C224.343 217 223 218.343 223 220C223 221.657 224.343 223 226 223Z" fill="#FDB28E"/>
</g>
<g id="type=garage, color=Default">
<path id="Union" fill-rule="evenodd" clip-rule="evenodd" d="M297 35.5499L280 23L263 34.5284V57H267V36.5713H293V57H297V35.5499ZM292 56V38H268V56H292Z" fill="white"/>
<path id="Outline_17" d="M296 36.3494V55.9865H292V58H296C297.105 58 298 57.0985 298 55.9865V36.3494C298 35.7222 297.71 35.1309 297.215 34.75L281.191 22.4141C280.497 21.8793 279.537 21.8608 278.823 22.3685L262.847 33.7219C262.316 34.0991 262 34.7126 262 35.3668V55.9865C262 57.0985 262.895 58 264 58H268V55.9865H264V35.3668L279.976 24.0135L296 36.3494Z" fill="#3A3A3A"/>
<g id="Outline_18">
<rect id="Rectangle 15" x="268" y="36" width="24" height="2" fill="#3A3A3A"/>
<rect id="Rectangle 16" x="268" y="41" width="24" height="2" fill="#3A3A3A"/>
<rect id="Rectangle 17" x="268" y="46" width="24" height="2" fill="#3A3A3A"/>
<rect id="Rectangle 18" x="268" y="51" width="24" height="2" fill="#3A3A3A"/>
<rect id="Rectangle 27" x="268" y="56" width="24" height="2" fill="#3A3A3A"/>
<path id="Rectangle 19" d="M266 38C266 36.8954 266.895 36 268 36V58H266V38Z" fill="#3A3A3A"/>
<path id="Rectangle 20" d="M292 36C293.105 36 294 36.8954 294 38V58H292V36Z" fill="#3A3A3A"/>
<rect id="Rectangle 21" x="268" y="36" width="24" height="2" fill="#3A3A3A"/>
</g>
</g>
<g id="type=garage, color=zwave">
<path id="Union_2" fill-rule="evenodd" clip-rule="evenodd" d="M297 95.5499L280 83L263 94.5284V117H267V96.5713H293V117H297V95.5499ZM292 116V98H268V116H292Z" fill="#DCC2FF"/>
<path id="Outline_19" d="M296 96.3494V115.987H292V118H296C297.105 118 298 117.099 298 115.987V96.3494C298 95.7222 297.71 95.1309 297.215 94.75L281.191 82.4141C280.497 81.8793 279.537 81.8608 278.823 82.3685L262.847 93.7219C262.316 94.0991 262 94.7126 262 95.3668V115.987C262 117.099 262.895 118 264 118H268V115.987H264V95.3668L279.976 84.0135L296 96.3494Z" fill="#9969D6"/>
<g id="Outline_20">
<rect id="Rectangle 15_2" x="268" y="96" width="24" height="2" fill="#9969D6"/>
<rect id="Rectangle 16_2" x="268" y="101" width="24" height="2" fill="#9969D6"/>
<rect id="Rectangle 17_2" x="268" y="106" width="24" height="2" fill="#9969D6"/>
<rect id="Rectangle 18_2" x="268" y="111" width="24" height="2" fill="#9969D6"/>
<rect id="Rectangle 27_2" x="268" y="116" width="24" height="2" fill="#9969D6"/>
<path id="Rectangle 19_2" d="M266 98C266 96.8954 266.895 96 268 96V118H266V98Z" fill="#9969D6"/>
<path id="Rectangle 20_2" d="M292 96C293.105 96 294 96.8954 294 98V118H292V96Z" fill="#9969D6"/>
<rect id="Rectangle 21_2" x="268" y="96" width="24" height="2" fill="#9969D6"/>
</g>
</g>
<g id="type=garage, color=enocean">
<path id="Union_3" fill-rule="evenodd" clip-rule="evenodd" d="M297 155.55L280 143L263 154.528V177H267V156.571H293V177H297V155.55ZM292 176V158H268V176H292Z" fill="#B5EFE2"/>
<path id="Outline_21" d="M296 156.349V175.987H292V178H296C297.105 178 298 177.099 298 175.987V156.349C298 155.722 297.71 155.131 297.215 154.75L281.191 142.414C280.497 141.879 279.537 141.861 278.823 142.369L262.847 153.722C262.316 154.099 262 154.713 262 155.367V175.987C262 177.099 262.895 178 264 178H268V175.987H264V155.367L279.976 144.013L296 156.349Z" fill="#53B19D"/>
<g id="Outline_22">
<rect id="Rectangle 15_3" x="268" y="156" width="24" height="2" fill="#53B19D"/>
<rect id="Rectangle 16_3" x="268" y="161" width="24" height="2" fill="#53B19D"/>
<rect id="Rectangle 17_3" x="268" y="166" width="24" height="2" fill="#53B19D"/>
<rect id="Rectangle 18_3" x="268" y="171" width="24" height="2" fill="#53B19D"/>
<rect id="Rectangle 27_3" x="268" y="176" width="24" height="2" fill="#53B19D"/>
<path id="Rectangle 19_3" d="M266 158C266 156.895 266.895 156 268 156V178H266V158Z" fill="#53B19D"/>
<path id="Rectangle 20_3" d="M292 156C293.105 156 294 156.895 294 158V178H292V156Z" fill="#53B19D"/>
<rect id="Rectangle 21_3" x="268" y="156" width="24" height="2" fill="#53B19D"/>
</g>
</g>
<g id="type=garage, color=zigbee">
<path id="Union_4" fill-rule="evenodd" clip-rule="evenodd" d="M297 215.55L280 203L263 214.528V237H267V216.571H293V237H297V215.55ZM292 236V218H268V236H292Z" fill="#FDB28E"/>
<path id="Outline_23" d="M296 216.349V235.987H292V238H296C297.105 238 298 237.099 298 235.987V216.349C298 215.722 297.71 215.131 297.215 214.75L281.191 202.414C280.497 201.879 279.537 201.861 278.823 202.369L262.847 213.722C262.316 214.099 262 214.713 262 215.367V235.987C262 237.099 262.895 238 264 238H268V235.987H264V215.367L279.976 204.013L296 216.349Z" fill="#DA7849"/>
<g id="Outline_24">
<rect id="Rectangle 15_4" x="268" y="216" width="24" height="2" fill="#DA7849"/>
<rect id="Rectangle 16_4" x="268" y="221" width="24" height="2" fill="#DA7849"/>
<rect id="Rectangle 17_4" x="268" y="226" width="24" height="2" fill="#DA7849"/>
<rect id="Rectangle 18_4" x="268" y="231" width="24" height="2" fill="#DA7849"/>
<rect id="Rectangle 27_4" x="268" y="236" width="24" height="2" fill="#DA7849"/>
<path id="Rectangle 19_4" d="M266 218C266 216.895 266.895 216 268 216V238H266V218Z" fill="#DA7849"/>
<path id="Rectangle 20_4" d="M292 216C293.105 216 294 216.895 294 218V238H292V216Z" fill="#DA7849"/>
<rect id="Rectangle 21_4" x="268" y="216" width="24" height="2" fill="#DA7849"/>
</g>
</g>
<g id="type=camera, color=Default">
<path id="Rectangle 7" d="M341 30H327C324.791 30 323 31.7909 323 34V46C323 48.2091 324.791 50 327 50H341C343.209 50 345 48.2091 345 46V34C345 31.7909 343.209 30 341 30Z" fill="white"/>
<path id="Triangle 3" fill-rule="evenodd" clip-rule="evenodd" d="M349.35 35.3884L355.35 30.2581C355.77 29.8992 356.401 29.9485 356.76 30.3683C356.915 30.5494 357 30.7799 357 31.0181V48.982C357 49.5343 356.552 49.982 356 49.982C355.762 49.982 355.532 49.8971 355.351 49.7425L349.351 44.6202C349.128 44.4302 349 44.1522 349 43.8596V36.1484C349 35.8561 349.128 35.5784 349.35 35.3884Z" fill="white"/>
<path id="Rectangle 6" fill-rule="evenodd" clip-rule="evenodd" d="M326 31C324.895 31 324 31.8954 324 33V47C324 48.1046 324.895 49 326 49H342C343.105 49 344 48.1046 344 47V33C344 31.8954 343.105 31 342 31H326ZM326 29H342C344.209 29 346 30.7909 346 33V47C346 49.2091 344.209 51 342 51H326C323.791 51 322 49.2091 322 47V33C322 30.7909 323.791 29 326 29Z" fill="#3A3A3A"/>
<path id="Triangle 2" fill-rule="evenodd" clip-rule="evenodd" d="M350 36.609V43.3984C350 43.6911 350.128 43.969 350.351 44.159L355.505 48.5595C355.631 48.6671 355.821 48.6522 355.928 48.5262C355.975 48.4718 356 48.4028 356 48.3314V31.6693C356 31.5036 355.866 31.3693 355.7 31.3693C355.629 31.3693 355.559 31.3949 355.505 31.4413L350.35 35.849C350.128 36.039 350 36.3167 350 36.609ZM354.7 29.498C355.54 28.7802 356.802 28.8788 357.52 29.7184C357.83 30.0806 358 30.5415 358 31.0181V48.9819C358 50.0865 357.105 50.9819 356 50.9819C355.524 50.9819 355.063 50.8121 354.701 50.503L348.701 45.3807C348.256 45.0007 348 44.4448 348 43.8596V36.1484C348 35.5637 348.256 35.0083 348.7 34.6283L354.7 29.498Z" fill="#3A3A3A"/>
</g>
<g id="type=camera, color=zwave">
<path id="Rectangle 7_2" d="M341 90H327C324.791 90 323 91.7909 323 94V106C323 108.209 324.791 110 327 110H341C343.209 110 345 108.209 345 106V94C345 91.7909 343.209 90 341 90Z" fill="#DCC2FF"/>
<path id="Triangle 3_2" fill-rule="evenodd" clip-rule="evenodd" d="M349.35 95.3884L355.35 90.2581C355.77 89.8992 356.401 89.9485 356.76 90.3683C356.915 90.5494 357 90.7799 357 91.0181V108.982C357 109.534 356.552 109.982 356 109.982C355.762 109.982 355.532 109.897 355.351 109.743L349.351 104.62C349.128 104.43 349 104.152 349 103.86V96.1484C349 95.8561 349.128 95.5784 349.35 95.3884Z" fill="#DCC2FF"/>
<path id="Rectangle 6_2" fill-rule="evenodd" clip-rule="evenodd" d="M326 91C324.895 91 324 91.8954 324 93V107C324 108.105 324.895 109 326 109H342C343.105 109 344 108.105 344 107V93C344 91.8954 343.105 91 342 91H326ZM326 89H342C344.209 89 346 90.7909 346 93V107C346 109.209 344.209 111 342 111H326C323.791 111 322 109.209 322 107V93C322 90.7909 323.791 89 326 89Z" fill="#9969D6"/>
<path id="Triangle 2_2" fill-rule="evenodd" clip-rule="evenodd" d="M350 96.609V103.398C350 103.691 350.128 103.969 350.351 104.159L355.505 108.56C355.631 108.667 355.821 108.652 355.928 108.526C355.975 108.472 356 108.403 356 108.331V91.6693C356 91.5036 355.866 91.3693 355.7 91.3693C355.629 91.3693 355.559 91.3949 355.505 91.4413L350.35 95.849C350.128 96.039 350 96.3167 350 96.609ZM354.7 89.498C355.54 88.7802 356.802 88.8788 357.52 89.7184C357.83 90.0806 358 90.5415 358 91.0181V108.982C358 110.087 357.105 110.982 356 110.982C355.524 110.982 355.063 110.812 354.701 110.503L348.701 105.381C348.256 105.001 348 104.445 348 103.86V96.1484C348 95.5637 348.256 95.0083 348.7 94.6283L354.7 89.498Z" fill="#9969D6"/>
</g>
<g id="type=camera, color=enocean">
<path id="Rectangle 7_3" d="M341 150H327C324.791 150 323 151.791 323 154V166C323 168.209 324.791 170 327 170H341C343.209 170 345 168.209 345 166V154C345 151.791 343.209 150 341 150Z" fill="#B5EFE2"/>
<path id="Triangle 3_3" fill-rule="evenodd" clip-rule="evenodd" d="M349.35 155.388L355.35 150.258C355.77 149.899 356.401 149.949 356.76 150.368C356.915 150.549 357 150.78 357 151.018V168.982C357 169.534 356.552 169.982 356 169.982C355.762 169.982 355.532 169.897 355.351 169.743L349.351 164.62C349.128 164.43 349 164.152 349 163.86V156.148C349 155.856 349.128 155.578 349.35 155.388Z" fill="#B5EFE2"/>
<path id="Rectangle 6_3" fill-rule="evenodd" clip-rule="evenodd" d="M326 151C324.895 151 324 151.895 324 153V167C324 168.105 324.895 169 326 169H342C343.105 169 344 168.105 344 167V153C344 151.895 343.105 151 342 151H326ZM326 149H342C344.209 149 346 150.791 346 153V167C346 169.209 344.209 171 342 171H326C323.791 171 322 169.209 322 167V153C322 150.791 323.791 149 326 149Z" fill="#53B19D"/>
<path id="Triangle 2_3" fill-rule="evenodd" clip-rule="evenodd" d="M350 156.609V163.398C350 163.691 350.128 163.969 350.351 164.159L355.505 168.56C355.631 168.667 355.821 168.652 355.928 168.526C355.975 168.472 356 168.403 356 168.331V151.669C356 151.504 355.866 151.369 355.7 151.369C355.629 151.369 355.559 151.395 355.505 151.441L350.35 155.849C350.128 156.039 350 156.317 350 156.609ZM354.7 149.498C355.54 148.78 356.802 148.879 357.52 149.718C357.83 150.081 358 150.542 358 151.018V168.982C358 170.087 357.105 170.982 356 170.982C355.524 170.982 355.063 170.812 354.701 170.503L348.701 165.381C348.256 165.001 348 164.445 348 163.86V156.148C348 155.564 348.256 155.008 348.7 154.628L354.7 149.498Z" fill="#53B19D"/>
</g>
<g id="type=camera, color=zigbee">
<path id="Rectangle 7_4" d="M341 210H327C324.791 210 323 211.791 323 214V226C323 228.209 324.791 230 327 230H341C343.209 230 345 228.209 345 226V214C345 211.791 343.209 210 341 210Z" fill="#FDB28E"/>
<path id="Triangle 3_4" fill-rule="evenodd" clip-rule="evenodd" d="M349.35 215.388L355.35 210.258C355.77 209.899 356.401 209.949 356.76 210.368C356.915 210.549 357 210.78 357 211.018V228.982C357 229.534 356.552 229.982 356 229.982C355.762 229.982 355.532 229.897 355.351 229.743L349.351 224.62C349.128 224.43 349 224.152 349 223.86V216.148C349 215.856 349.128 215.578 349.35 215.388Z" fill="#FDB28E"/>
<path id="Rectangle 6_4" fill-rule="evenodd" clip-rule="evenodd" d="M326 211C324.895 211 324 211.895 324 213V227C324 228.105 324.895 229 326 229H342C343.105 229 344 228.105 344 227V213C344 211.895 343.105 211 342 211H326ZM326 209H342C344.209 209 346 210.791 346 213V227C346 229.209 344.209 231 342 231H326C323.791 231 322 229.209 322 227V213C322 210.791 323.791 209 326 209Z" fill="#DA7849"/>
<path id="Triangle 2_4" fill-rule="evenodd" clip-rule="evenodd" d="M350 216.609V223.398C350 223.691 350.128 223.969 350.351 224.159L355.505 228.56C355.631 228.667 355.821 228.652 355.928 228.526C355.975 228.472 356 228.403 356 228.331V211.669C356 211.504 355.866 211.369 355.7 211.369C355.629 211.369 355.559 211.395 355.505 211.441L350.35 215.849C350.128 216.039 350 216.317 350 216.609ZM354.7 209.498C355.54 208.78 356.802 208.879 357.52 209.718C357.83 210.081 358 210.542 358 211.018V228.982C358 230.087 357.105 230.982 356 230.982C355.524 230.982 355.063 230.812 354.701 230.503L348.701 225.381C348.256 225.001 348 224.445 348 223.86V216.148C348 215.564 348.256 215.008 348.7 214.628L354.7 209.498Z" fill="#DA7849"/>
</g>
<rect x="0.5" y="0.5" width="500" height="259" rx="4.5" stroke="#7B61FF" stroke-dasharray="10 5"/>
</g>
</svg>
