<svg width="40" height="40" viewBox="0 0 40 40" fill="none" xmlns="http://www.w3.org/2000/svg">
<path d="M3 11C3 10.4477 3.44772 10 4 10H36C36.5523 10 37 10.4477 37 11C37 11.5523 36.5523 12 36 12H4C3.44772 12 3 11.5523 3 11Z" fill="#DA7849"/>
<path d="M3 30C3 29.4477 3.44772 29 4 29H36C36.5523 29 37 29.4477 37 30C37 30.5523 36.5523 31 36 31H4C3.44772 31 3 30.5523 3 30Z" fill="#DA7849"/>
<path d="M21 8C21 6.34315 22.3431 5 24 5C25.6569 5 27 6.34315 27 8V32C27 33.6569 25.6569 35 24 35C22.3431 35 21 33.6569 21 32V8Z" fill="#DA7849"/>
<path d="M13 8C13 6.34315 14.3431 5 16 5C17.6569 5 19 6.34315 19 8V32C19 33.6569 17.6569 35 16 35C14.3431 35 13 33.6569 13 32V8Z" fill="#DA7849"/>
<path d="M5 8C5 6.34315 6.34315 5 8 5C9.65685 5 11 6.34315 11 8V32C11 33.6569 9.65685 35 8 35C6.34315 35 5 33.6569 5 32V8Z" fill="#DA7849"/>
<path d="M29 8C29 6.34315 30.3431 5 32 5C33.6569 5 35 6.34315 35 8V32C35 33.6569 33.6569 35 32 35C30.3431 35 29 33.6569 29 32V8Z" fill="#DA7849"/>
<path d="M7 8C7 7.44772 7.44772 7 8 7C8.55228 7 9 7.44772 9 8V32C9 32.5523 8.55228 33 8 33C7.44772 33 7 32.5523 7 32V8Z" fill="#FDB28E"/>
<path d="M15 8C15 7.44772 15.4477 7 16 7C16.5523 7 17 7.44772 17 8V32C17 32.5523 16.5523 33 16 33C15.4477 33 15 32.5523 15 32V8Z" fill="#FDB28E"/>
<path d="M23 8C23 7.44772 23.4477 7 24 7C24.5523 7 25 7.44772 25 8V32C25 32.5523 24.5523 33 24 33C23.4477 33 23 32.5523 23 32V8Z" fill="#FDB28E"/>
<path d="M31 8C31 7.44772 31.4477 7 32 7C32.5523 7 33 7.44772 33 8V32C33 32.5523 32.5523 33 32 33C31.4477 33 31 32.5523 31 32V8Z" fill="#FDB28E"/>
</svg>
